<svg width="288" height="492" viewBox="0 0 288 492" fill="none" xmlns="http://www.w3.org/2000/svg">
<rect y="393" width="288" height="99" rx="21" fill="#121B30"/>
<path d="M93.92 443.6V452H92.924V444.548H88.052V452H87.056V443.6H88.052H93.92ZM99.4646 445.268C100.361 445.268 101.097 445.592 101.673 446.24C102.257 446.88 102.549 447.7 102.549 448.7C102.549 449.7 102.257 450.524 101.673 451.172C101.089 451.812 100.349 452.132 99.4526 452.132C98.8926 452.132 98.3926 452.004 97.9526 451.748C97.5206 451.484 97.1766 451.124 96.9206 450.668V455H95.9246V445.4H96.9206V446.756C97.1766 446.292 97.5246 445.928 97.9646 445.664C98.4046 445.4 98.9046 445.268 99.4646 445.268ZM99.2726 451.184C99.9366 451.184 100.481 450.952 100.905 450.488C101.329 450.024 101.541 449.428 101.541 448.7C101.541 447.98 101.329 447.388 100.905 446.924C100.481 446.452 99.9366 446.216 99.2726 446.216C98.5926 446.216 98.0286 446.452 97.5806 446.924C97.1326 447.388 96.9086 447.98 96.9086 448.7C96.9086 449.42 97.1326 450.016 97.5806 450.488C98.0286 450.952 98.5926 451.184 99.2726 451.184ZM107.188 445.268C108.14 445.268 108.944 445.596 109.6 446.252C110.264 446.9 110.596 447.716 110.596 448.7C110.596 449.684 110.268 450.504 109.612 451.16C108.956 451.808 108.148 452.132 107.188 452.132C106.236 452.132 105.432 451.804 104.776 451.148C104.12 450.492 103.792 449.676 103.792 448.7C103.792 447.724 104.12 446.908 104.776 446.252C105.44 445.596 106.244 445.268 107.188 445.268ZM108.892 446.924C108.428 446.452 107.86 446.216 107.188 446.216C106.516 446.216 105.948 446.452 105.484 446.924C105.028 447.388 104.8 447.98 104.8 448.7C104.8 449.42 105.028 450.016 105.484 450.488C105.948 450.952 106.516 451.184 107.188 451.184C107.868 451.184 108.436 450.952 108.892 450.488C109.356 450.016 109.588 449.42 109.588 448.7C109.588 447.98 109.356 447.388 108.892 446.924ZM118.012 451.064H119.212V453.764H118.216V452H117.016H111.988V453.764H110.992V451.064H112.12C112.48 450.816 112.748 450.124 112.924 448.988L113.5 445.4H118.012V451.064ZM113.236 451.064H117.016V446.336H114.352L113.92 449.012C113.76 450.004 113.532 450.688 113.236 451.064ZM125.463 445.4H126.459V452H125.463V450.668C125.199 451.124 124.847 451.484 124.407 451.748C123.975 452.004 123.479 452.132 122.919 452.132C122.023 452.132 121.283 451.812 120.699 451.172C120.123 450.524 119.835 449.7 119.835 448.7C119.835 447.7 120.123 446.88 120.699 446.24C121.283 445.592 122.023 445.268 122.919 445.268C123.479 445.268 123.979 445.4 124.419 445.664C124.859 445.928 125.207 446.292 125.463 446.756V445.4ZM123.111 451.184C123.791 451.184 124.355 450.952 124.803 450.488C125.251 450.016 125.475 449.42 125.475 448.7C125.475 447.98 125.251 447.388 124.803 446.924C124.355 446.452 123.791 446.216 123.111 446.216C122.439 446.216 121.891 446.452 121.467 446.924C121.051 447.388 120.843 447.98 120.843 448.7C120.843 449.428 121.055 450.024 121.479 450.488C121.903 450.952 122.447 451.184 123.111 451.184ZM138.324 452H137.016L133.488 448.808V452H132.492V448.808L128.964 452H127.656L131.436 448.532L127.956 445.4H129.264L132.492 448.352V445.4H133.488V448.352L136.716 445.4H138.024L134.544 448.532L138.324 452ZM147.398 445.4H148.394V452H147.398V449.612C146.822 449.86 146.174 449.984 145.454 449.984C143.742 449.984 142.886 449.172 142.886 447.548V445.4H143.882V447.32C143.882 447.944 144.014 448.396 144.278 448.676C144.55 448.948 144.998 449.084 145.622 449.084C146.39 449.084 146.982 448.956 147.398 448.7V445.4ZM153.277 445.268C154.301 445.268 155.117 445.616 155.725 446.312C156.333 447.008 156.617 447.904 156.577 449H150.925C150.973 449.68 151.217 450.216 151.657 450.608C152.097 451 152.653 451.196 153.325 451.196C154.309 451.196 154.997 450.812 155.389 450.044H156.421C156.149 450.724 155.737 451.244 155.185 451.604C154.633 451.956 154.001 452.132 153.289 452.132C152.305 452.132 151.493 451.816 150.853 451.184C150.221 450.544 149.905 449.724 149.905 448.724C149.905 447.724 150.221 446.9 150.853 446.252C151.485 445.596 152.293 445.268 153.277 445.268ZM153.277 446.204C152.685 446.204 152.181 446.376 151.765 446.72C151.357 447.064 151.093 447.512 150.973 448.064H155.497C155.385 447.504 155.133 447.056 154.741 446.72C154.349 446.376 153.861 446.204 153.277 446.204ZM161.633 445.268C162.529 445.268 163.265 445.592 163.841 446.24C164.425 446.88 164.717 447.7 164.717 448.7C164.717 449.7 164.425 450.524 163.841 451.172C163.257 451.812 162.517 452.132 161.621 452.132C161.061 452.132 160.561 452.004 160.121 451.748C159.689 451.484 159.345 451.124 159.089 450.668V455H158.093V445.4H159.089V446.756C159.345 446.292 159.693 445.928 160.133 445.664C160.573 445.4 161.073 445.268 161.633 445.268ZM161.441 451.184C162.105 451.184 162.649 450.952 163.073 450.488C163.497 450.024 163.709 449.428 163.709 448.7C163.709 447.98 163.497 447.388 163.073 446.924C162.649 446.452 162.105 446.216 161.441 446.216C160.761 446.216 160.197 446.452 159.749 446.924C159.301 447.388 159.077 447.98 159.077 448.7C159.077 449.42 159.301 450.016 159.749 450.488C160.197 450.952 160.761 451.184 161.441 451.184ZM169.332 445.268C170.356 445.268 171.172 445.616 171.78 446.312C172.388 447.008 172.672 447.904 172.632 449H166.98C167.028 449.68 167.272 450.216 167.712 450.608C168.152 451 168.708 451.196 169.38 451.196C170.364 451.196 171.052 450.812 171.444 450.044H172.476C172.204 450.724 171.792 451.244 171.24 451.604C170.688 451.956 170.056 452.132 169.344 452.132C168.36 452.132 167.548 451.816 166.908 451.184C166.276 450.544 165.96 449.724 165.96 448.724C165.96 447.724 166.276 446.9 166.908 446.252C167.54 445.596 168.348 445.268 169.332 445.268ZM169.332 446.204C168.74 446.204 168.236 446.376 167.82 446.72C167.412 447.064 167.148 447.512 167.028 448.064H171.552C171.44 447.504 171.188 447.056 170.796 446.72C170.404 446.376 169.916 446.204 169.332 446.204ZM178.395 448.508C178.779 448.636 179.063 448.848 179.247 449.144C179.439 449.432 179.535 449.768 179.535 450.152C179.535 450.752 179.287 451.232 178.791 451.592C178.303 451.952 177.631 452.132 176.775 452.132C174.943 452.132 173.883 451.376 173.595 449.864H174.603C174.819 450.856 175.531 451.352 176.739 451.352C177.339 451.352 177.787 451.236 178.083 451.004C178.379 450.772 178.527 450.464 178.527 450.08C178.527 449.344 178.067 448.976 177.147 448.976H175.815V448.184H176.871C177.831 448.184 178.311 447.86 178.311 447.212C178.311 446.868 178.175 446.588 177.903 446.372C177.639 446.148 177.219 446.036 176.643 446.036C175.635 446.036 175.023 446.416 174.807 447.176H173.799C173.935 446.576 174.243 446.108 174.723 445.772C175.203 445.436 175.851 445.268 176.667 445.268C177.499 445.268 178.147 445.444 178.611 445.796C179.083 446.14 179.319 446.592 179.319 447.152C179.319 447.8 179.011 448.252 178.395 448.508ZM189.257 445.4H190.481V452H189.485V448.832L189.545 446.612L185.741 452H184.517V445.4H185.513V448.568L185.453 450.776L189.257 445.4ZM197.292 445.4H198.288V452H197.292V449.096H193.236V452H192.24V445.4H193.236V448.148H197.292V445.4ZM205.048 445.4V446.336H202.768V452H201.772V446.336H199.492V445.4H202.768H205.048ZM209.141 445.268C210.165 445.268 210.981 445.616 211.589 446.312C212.197 447.008 212.481 447.904 212.441 449H206.789C206.837 449.68 207.081 450.216 207.521 450.608C207.961 451 208.517 451.196 209.189 451.196C210.173 451.196 210.861 450.812 211.253 450.044H212.285C212.013 450.724 211.601 451.244 211.049 451.604C210.497 451.956 209.865 452.132 209.153 452.132C208.169 452.132 207.357 451.816 206.717 451.184C206.085 450.544 205.769 449.724 205.769 448.724C205.769 447.724 206.085 446.9 206.717 446.252C207.349 445.596 208.157 445.268 209.141 445.268ZM209.141 446.204C208.549 446.204 208.045 446.376 207.629 446.72C207.221 447.064 206.957 447.512 206.837 448.064H211.361C211.249 447.504 210.997 447.056 210.605 446.72C210.213 446.376 209.725 446.204 209.141 446.204ZM217.496 445.268C218.392 445.268 219.128 445.592 219.704 446.24C220.288 446.88 220.58 447.7 220.58 448.7C220.58 449.7 220.288 450.524 219.704 451.172C219.12 451.812 218.38 452.132 217.484 452.132C216.924 452.132 216.424 452.004 215.984 451.748C215.552 451.484 215.208 451.124 214.952 450.668V455H213.956V445.4H214.952V446.756C215.208 446.292 215.556 445.928 215.996 445.664C216.436 445.4 216.936 445.268 217.496 445.268ZM217.304 451.184C217.968 451.184 218.512 450.952 218.936 450.488C219.36 450.024 219.572 449.428 219.572 448.7C219.572 447.98 219.36 447.388 218.936 446.924C218.512 446.452 217.968 446.216 217.304 446.216C216.624 446.216 216.06 446.452 215.612 446.924C215.164 447.388 214.94 447.98 214.94 448.7C214.94 449.42 215.164 450.016 215.612 450.488C216.06 450.952 216.624 451.184 217.304 451.184ZM227.139 445.4H228.135V452H227.139V449.096H223.083V452H222.087V445.4H223.083V448.148H227.139V445.4ZM233.023 445.268C234.047 445.268 234.863 445.616 235.471 446.312C236.079 447.008 236.363 447.904 236.323 449H230.671C230.719 449.68 230.963 450.216 231.403 450.608C231.843 451 232.399 451.196 233.071 451.196C234.055 451.196 234.743 450.812 235.135 450.044H236.167C235.895 450.724 235.483 451.244 234.931 451.604C234.379 451.956 233.747 452.132 233.035 452.132C232.051 452.132 231.239 451.816 230.599 451.184C229.967 450.544 229.651 449.724 229.651 448.724C229.651 447.724 229.967 446.9 230.599 446.252C231.231 445.596 232.039 445.268 233.023 445.268ZM233.023 446.204C232.431 446.204 231.927 446.376 231.511 446.72C231.103 447.064 230.839 447.512 230.719 448.064H235.243C235.131 447.504 234.879 447.056 234.487 446.72C234.095 446.376 233.607 446.204 233.023 446.204ZM242.548 445.4V446.336H240.268V452H239.272V446.336H236.992V445.4H240.268H242.548ZM91.196 463.508C91.58 463.636 91.864 463.848 92.048 464.144C92.24 464.432 92.336 464.768 92.336 465.152C92.336 465.752 92.088 466.232 91.592 466.592C91.104 466.952 90.432 467.132 89.576 467.132C87.744 467.132 86.684 466.376 86.396 464.864H87.404C87.62 465.856 88.332 466.352 89.54 466.352C90.14 466.352 90.588 466.236 90.884 466.004C91.18 465.772 91.328 465.464 91.328 465.08C91.328 464.344 90.868 463.976 89.948 463.976H88.616V463.184H89.672C90.632 463.184 91.112 462.86 91.112 462.212C91.112 461.868 90.976 461.588 90.704 461.372C90.44 461.148 90.02 461.036 89.444 461.036C88.436 461.036 87.824 461.416 87.608 462.176H86.6C86.736 461.576 87.044 461.108 87.524 460.772C88.004 460.436 88.652 460.268 89.468 460.268C90.3 460.268 90.948 460.444 91.412 460.796C91.884 461.14 92.12 461.592 92.12 462.152C92.12 462.8 91.812 463.252 91.196 463.508ZM99.084 460.4H100.08V467H99.084V465.668C98.82 466.124 98.468 466.484 98.028 466.748C97.596 467.004 97.1 467.132 96.54 467.132C95.644 467.132 94.904 466.812 94.32 466.172C93.744 465.524 93.456 464.7 93.456 463.7C93.456 462.7 93.744 461.88 94.32 461.24C94.904 460.592 95.644 460.268 96.54 460.268C97.1 460.268 97.6 460.4 98.04 460.664C98.48 460.928 98.828 461.292 99.084 461.756V460.4ZM96.732 466.184C97.412 466.184 97.976 465.952 98.424 465.488C98.872 465.016 99.096 464.42 99.096 463.7C99.096 462.98 98.872 462.388 98.424 461.924C97.976 461.452 97.412 461.216 96.732 461.216C96.06 461.216 95.512 461.452 95.088 461.924C94.672 462.388 94.464 462.98 94.464 463.7C94.464 464.428 94.676 465.024 95.1 465.488C95.524 465.952 96.068 466.184 96.732 466.184ZM111.391 466.04V467H105.091V466.28L107.527 464.156C108.655 463.172 109.375 462.5 109.687 462.14C110.007 461.78 110.167 461.396 110.167 460.988C110.167 460.524 109.995 460.148 109.651 459.86C109.307 459.564 108.847 459.416 108.271 459.416C107.695 459.416 107.231 459.572 106.879 459.884C106.527 460.188 106.291 460.62 106.171 461.18H105.163C105.283 460.348 105.627 459.688 106.195 459.2C106.763 458.712 107.471 458.468 108.319 458.468C109.167 458.468 109.851 458.704 110.371 459.176C110.899 459.648 111.163 460.24 111.163 460.952C111.163 461.528 110.971 462.048 110.587 462.512C110.211 462.968 109.463 463.68 108.343 464.648L106.735 466.04H111.391ZM122.024 460.4H123.248V467H122.252V463.832L122.312 461.504L119.84 464.996H119.804L117.332 461.504L117.404 463.832V467H116.408V460.4H117.632L119.828 463.472L122.024 460.4ZM128.129 460.268C129.153 460.268 129.969 460.616 130.577 461.312C131.185 462.008 131.469 462.904 131.429 464H125.777C125.825 464.68 126.069 465.216 126.509 465.608C126.949 466 127.505 466.196 128.177 466.196C129.161 466.196 129.849 465.812 130.241 465.044H131.273C131.001 465.724 130.589 466.244 130.037 466.604C129.485 466.956 128.853 467.132 128.141 467.132C127.157 467.132 126.345 466.816 125.705 466.184C125.073 465.544 124.757 464.724 124.757 463.724C124.757 462.724 125.073 461.9 125.705 461.252C126.337 460.596 127.145 460.268 128.129 460.268ZM128.129 461.204C127.537 461.204 127.033 461.376 126.617 461.72C126.209 462.064 125.945 462.512 125.825 463.064H130.349C130.237 462.504 129.985 462.056 129.593 461.72C129.201 461.376 128.713 461.204 128.129 461.204ZM136.028 467.132C135.06 467.132 134.248 466.808 133.592 466.16C132.944 465.504 132.62 464.684 132.62 463.7C132.62 462.716 132.944 461.9 133.592 461.252C134.248 460.596 135.06 460.268 136.028 460.268C136.812 460.268 137.5 460.488 138.092 460.928C138.684 461.368 139.064 461.96 139.232 462.704H138.2C138.048 462.24 137.776 461.872 137.384 461.6C136.992 461.328 136.54 461.192 136.028 461.192C135.332 461.192 134.756 461.428 134.3 461.9C133.852 462.372 133.628 462.972 133.628 463.7C133.628 464.428 133.852 465.028 134.3 465.5C134.756 465.972 135.332 466.208 136.028 466.208C136.54 466.208 136.988 466.072 137.372 465.8C137.764 465.528 138.04 465.16 138.2 464.696H139.232C139.056 465.448 138.672 466.044 138.08 466.484C137.488 466.916 136.804 467.132 136.028 467.132ZM142.8 460.4H146.016V467H145.02V464.504H143.292L141.372 467H140.136L142.2 464.444C141.656 464.348 141.228 464.144 140.916 463.832C140.604 463.512 140.448 463.088 140.448 462.56C140.448 461.864 140.652 461.332 141.06 460.964C141.468 460.588 142.048 460.4 142.8 460.4ZM142.884 463.664H145.02V461.3H142.836C141.916 461.3 141.456 461.712 141.456 462.536C141.456 463.288 141.932 463.664 142.884 463.664ZM153.61 466.064H154.81V468.764H153.814V467H152.614H148.114H147.79V460.4H148.786V466.064H152.614V460.4H153.61V466.064ZM161.158 460.4H162.154V467H161.158V465.668C160.894 466.124 160.542 466.484 160.102 466.748C159.67 467.004 159.174 467.132 158.614 467.132C157.718 467.132 156.978 466.812 156.394 466.172C155.818 465.524 155.53 464.7 155.53 463.7C155.53 462.7 155.818 461.88 156.394 461.24C156.978 460.592 157.718 460.268 158.614 460.268C159.174 460.268 159.674 460.4 160.114 460.664C160.554 460.928 160.902 461.292 161.158 461.756V460.4ZM158.806 466.184C159.486 466.184 160.05 465.952 160.498 465.488C160.946 465.016 161.17 464.42 161.17 463.7C161.17 462.98 160.946 462.388 160.498 461.924C160.05 461.452 159.486 461.216 158.806 461.216C158.134 461.216 157.586 461.452 157.162 461.924C156.746 462.388 156.538 462.98 156.538 463.7C156.538 464.428 156.75 465.024 157.174 465.488C157.598 465.952 158.142 466.184 158.806 466.184Z" fill="white"/>
<path d="M91.544 414.6H92.666V430H90.18V417.504L86.682 418.934V416.492L91.544 414.6ZM108.607 414.336C110.631 414.336 112.207 415.047 113.337 416.47C114.466 417.878 115.031 419.821 115.031 422.3C115.031 424.779 114.466 426.729 113.337 428.152C112.207 429.56 110.631 430.264 108.607 430.264C106.597 430.264 105.028 429.56 103.899 428.152C102.769 426.744 102.205 424.793 102.205 422.3C102.205 419.807 102.769 417.856 103.899 416.448C105.028 415.04 106.597 414.336 108.607 414.336ZM108.607 427.888C111.217 427.888 112.523 426.025 112.523 422.3C112.523 418.575 111.217 416.712 108.607 416.712C106.011 416.712 104.713 418.575 104.713 422.3C104.713 426.025 106.011 427.888 108.607 427.888ZM123.624 414.336C125.648 414.336 127.225 415.047 128.354 416.47C129.483 417.878 130.048 419.821 130.048 422.3C130.048 424.779 129.483 426.729 128.354 428.152C127.225 429.56 125.648 430.264 123.624 430.264C121.615 430.264 120.045 429.56 118.916 428.152C117.787 426.744 117.222 424.793 117.222 422.3C117.222 419.807 117.787 417.856 118.916 416.448C120.045 415.04 121.615 414.336 123.624 414.336ZM123.624 427.888C126.235 427.888 127.54 426.025 127.54 422.3C127.54 418.575 126.235 416.712 123.624 416.712C121.028 416.712 119.73 418.575 119.73 422.3C119.73 426.025 121.028 427.888 123.624 427.888ZM138.642 414.336C140.666 414.336 142.242 415.047 143.372 416.47C144.501 417.878 145.066 419.821 145.066 422.3C145.066 424.779 144.501 426.729 143.372 428.152C142.242 429.56 140.666 430.264 138.642 430.264C136.632 430.264 135.063 429.56 133.934 428.152C132.804 426.744 132.24 424.793 132.24 422.3C132.24 419.807 132.804 417.856 133.934 416.448C135.063 415.04 136.632 414.336 138.642 414.336ZM138.642 427.888C141.252 427.888 142.558 426.025 142.558 422.3C142.558 418.575 141.252 416.712 138.642 416.712C136.046 416.712 134.748 418.575 134.748 422.3C134.748 426.025 136.046 427.888 138.642 427.888ZM154.757 418.01V422.278H159.025V424.654H154.757V428.922H152.271V424.654H148.003V422.278H152.271V418.01H154.757Z" fill="white"/>
<circle cx="46" cy="442" r="26" fill="#F6F4FC"/>
</svg>
